<?xml version="1.0" encoding="UTF-8" standalone="no"?><!DOCTYPE svg PUBLIC "-//W3C//DTD SVG 1.1//EN" "http://www.w3.org/Graphics/SVG/1.1/DTD/svg11.dtd"><svg width="100%" height="100%" viewBox="0 0 65 64" version="1.1" xmlns="http://www.w3.org/2000/svg" xmlns:xlink="http://www.w3.org/1999/xlink" xml:space="preserve" style="fill-rule:evenodd;clip-rule:evenodd;stroke-linejoin:round;stroke-miterlimit:1.41421;"><rect id="Email-closed" x="0.681" y="0" width="64" height="64" style="fill:none;"/><path d="M3.705,51.654l-0.014,0.001c-0.041,-0.004 -0.081,-0.007 -0.122,-0.01l-0.001,0c-0.106,-0.022 -0.135,-0.023 -0.237,-0.064c-0.041,-0.016 -0.08,-0.035 -0.119,-0.057l-0.004,-0.002c-0.103,-0.059 -0.196,-0.134 -0.274,-0.224c-0.065,-0.074 -0.118,-0.158 -0.159,-0.248c-0.005,-0.011 -0.01,-0.022 -0.015,-0.033c-0.005,-0.012 -0.009,-0.023 -0.013,-0.035c-0.029,-0.077 -0.049,-0.157 -0.058,-0.238c-0.002,-0.016 -0.003,-0.032 -0.004,-0.048c-0.002,-0.02 -0.003,-0.039 -0.003,-0.059c0,-0.006 0,-0.011 -0.001,-0.016l0,-37.242l0,-0.001c0,-0.035 0.002,-0.07 0.006,-0.105c0,-0.005 0.001,-0.011 0.002,-0.017c0.014,-0.122 0.051,-0.241 0.107,-0.351c0.015,-0.029 0.032,-0.057 0.049,-0.084c0.026,-0.04 0.054,-0.078 0.085,-0.114c0.064,-0.076 0.139,-0.141 0.223,-0.196c0.099,-0.064 0.209,-0.111 0.324,-0.138l0,0l0.001,0l0.007,-0.002l0.019,-0.004l0.004,-0.001l0.001,0l0.003,-0.001l0.021,-0.004l0.005,-0.001l0.001,0c0.009,-0.002 0.019,-0.003 0.029,-0.004l0,-0.001l0.001,0c0.048,-0.007 0.097,-0.01 0.145,-0.01l0.002,0l57.931,0l0.001,0c0.049,0 0.098,0.003 0.146,0.01l0.001,0l0,0.001c0.01,0.001 0.019,0.002 0.029,0.004l0.001,0l0.004,0.001l0.021,0.004l0.004,0.001l0.001,0l0.003,0.001l0.019,0.004l0.008,0.002l0,0l0.001,0c0.115,0.027 0.225,0.074 0.324,0.138c0.083,0.055 0.158,0.12 0.223,0.196c0.036,0.042 0.069,0.088 0.098,0.135l0.005,0.009l0.002,0.003l0.003,0.004l0.005,0.009l0.006,0.011l0.003,0.007l0.004,0.006l0.003,0.006l0.004,0.008l0.009,0.017l0.001,0.002l0,0.001c0.005,0.009 0.009,0.019 0.014,0.029l0.001,0.004l0.003,0.005l0.002,0.005l0.002,0.005l0.003,0.006l0.002,0.006l0.002,0.004l0.002,0.006l0.003,0.006l0.001,0.004l0.002,0.006l0.003,0.007l0.002,0.004l0.001,0.004l0.002,0.006l0.004,0.01l0.001,0.002l0,0.002c0.023,0.068 0.039,0.139 0.048,0.21c0.001,0.012 0.002,0.023 0.003,0.034c0.002,0.026 0.004,0.053 0.004,0.079l0,0.01l0,37.242l0,0.003c0,0.03 -0.001,0.061 -0.004,0.091c-0.001,0.01 -0.002,0.019 -0.003,0.029c-0.01,0.081 -0.029,0.161 -0.058,0.238c-0.012,0.033 -0.026,0.064 -0.041,0.095c-0.017,0.036 -0.037,0.07 -0.058,0.103c-0.053,0.083 -0.118,0.158 -0.193,0.222c-0.054,0.047 -0.113,0.088 -0.175,0.123c-0.038,0.021 -0.077,0.04 -0.118,0.056c-0.067,0.027 -0.138,0.047 -0.209,0.059l-0.001,0l0,0l-0.004,0.001l-0.004,0.001l-0.001,0l0,0l-0.003,0l-0.004,0.001l-0.002,0l0,0c-0.003,0.001 -0.006,0.001 -0.009,0.002l0,0l-0.004,0l-0.003,0.001l-0.001,0l0,0c-0.002,0 -0.004,0 -0.006,0.001l-0.001,0l-0.002,0l-0.001,0l-0.002,0c-0.034,0.004 -0.068,0.005 -0.103,0.008l-0.013,-0.001c-0.003,0.001 -0.007,0.001 -0.011,0.001l-57.931,0l-0.011,-0.001Zm55.089,-37.24l-52.226,0l26.113,21.809c8.705,-7.27 17.409,-14.539 26.113,-21.809Zm-31.626,19.9l-22.418,-18.723l0,33.135l22.418,-14.412Zm33.444,-18.723l-22.418,18.723l22.418,14.412l0,-33.135Zm-53.374,33.995l50.887,0l-21.595,-13.882l-3.186,2.661c-0.103,0.075 -0.126,0.1 -0.243,0.152c-0.088,0.039 -0.181,0.065 -0.276,0.078c-0.048,0.007 -0.096,0.007 -0.144,0.01c-0.047,-0.003 -0.095,-0.006 -0.143,-0.01c-0.125,-0.026 -0.159,-0.026 -0.276,-0.078c-0.117,-0.052 -0.141,-0.077 -0.244,-0.152l-3.186,-2.661l-21.594,13.882Z"/></svg>