<?xml version="1.0" encoding="UTF-8" standalone="no"?><!DOCTYPE svg PUBLIC "-//W3C//DTD SVG 1.1//EN" "http://www.w3.org/Graphics/SVG/1.1/DTD/svg11.dtd"><svg width="100%" height="100%" viewBox="0 0 128 128" version="1.1" xmlns="http://www.w3.org/2000/svg" xmlns:xlink="http://www.w3.org/1999/xlink" xml:space="preserve" style="fill-rule:evenodd;clip-rule:evenodd;stroke-linejoin:round;stroke-miterlimit:1.41421;"><path d="M63.994,1.58c-35.336,0 -63.994,28.653 -63.994,64.006c0,28.272 18.336,52.262 43.768,60.725c3.202,0.585 4.369,-1.391 4.369,-3.084c0,-1.521 -0.055,-5.544 -0.086,-10.887c-17.802,3.87 -21.558,-8.577 -21.558,-8.577c-2.912,-7.394 -7.108,-9.363 -7.108,-9.363c-5.811,-3.972 0.44,-3.889 0.44,-3.889c6.424,0.451 9.803,6.592 9.803,6.592c5.709,9.783 14.981,6.958 18.627,5.32c0.581,-4.137 2.235,-6.958 4.062,-8.557c-14.21,-1.615 -29.152,-7.108 -29.152,-31.632c0,-6.985 2.495,-12.698 6.589,-17.173c-0.66,-1.619 -2.857,-8.125 0.628,-16.938c0,0 5.371,-1.72 17.598,6.562c5.104,-1.419 10.58,-2.13 16.022,-2.153c5.438,0.023 10.911,0.734 16.022,2.153c12.219,-8.282 17.582,-6.562 17.582,-6.562c3.493,8.813 1.297,15.319 0.64,16.938c4.102,4.475 6.577,10.188 6.577,17.173c0,24.587 -14.965,29.997 -29.219,31.581c2.295,1.976 4.342,5.881 4.342,11.853c0,8.557 -0.079,15.461 -0.079,17.559c0,1.709 1.155,3.701 4.4,3.076c25.413,-8.479 43.733,-32.453 43.733,-60.717c0,-35.353 -28.657,-64.006 -64.006,-64.006Z" style="fill:#181717;"/></svg>