<?xml version="1.0" encoding="UTF-8" standalone="no"?><!DOCTYPE svg PUBLIC "-//W3C//DTD SVG 1.1//EN" "http://www.w3.org/Graphics/SVG/1.1/DTD/svg11.dtd"><svg width="100%" height="100%" viewBox="0 0 64 64" version="1.1" xmlns="http://www.w3.org/2000/svg" xmlns:xlink="http://www.w3.org/1999/xlink" xml:space="preserve" style="fill-rule:evenodd;clip-rule:evenodd;stroke-linejoin:round;stroke-miterlimit:1.41421;"><rect id="Github" x="0" y="0" width="64" height="64" style="fill:none;"/><clipPath id="_clip1"><rect id="Github1" x="0" y="0" width="64" height="64"/></clipPath><g clip-path="url(#_clip1)"><path d="M31.997,0.79c-17.668,0 -31.997,14.326 -31.997,32.003c0,14.136 9.168,26.131 21.884,30.362c1.601,0.293 2.185,-0.695 2.185,-1.542c0,-0.76 -0.028,-2.772 -0.043,-5.443c-8.901,1.935 -10.779,-4.289 -10.779,-4.289c-1.456,-3.697 -3.554,-4.681 -3.554,-4.681c-2.906,-1.986 0.22,-1.945 0.22,-1.945c3.212,0.226 4.901,3.296 4.901,3.296c2.855,4.892 7.491,3.479 9.314,2.66c0.29,-2.068 1.117,-3.479 2.031,-4.278c-7.105,-0.808 -14.576,-3.554 -14.576,-15.816c0,-3.493 1.247,-6.349 3.294,-8.587c-0.33,-0.809 -1.428,-4.062 0.314,-8.469c0,0 2.686,-0.86 8.799,3.281c2.552,-0.709 5.29,-1.065 8.011,-1.076c2.719,0.011 5.456,0.367 8.011,1.076c6.109,-4.141 8.791,-3.281 8.791,-3.281c1.746,4.407 0.648,7.66 0.32,8.469c2.051,2.238 3.288,5.094 3.288,8.587c0,12.293 -7.482,14.998 -14.609,15.79c1.147,0.988 2.171,2.941 2.171,5.927c0,4.278 -0.04,7.73 -0.04,8.779c0,0.855 0.578,1.851 2.2,1.538c12.707,-4.239 21.867,-16.226 21.867,-30.358c0,-17.677 -14.328,-32.003 -32.003,-32.003l0,0Z" style="fill:#181717;"/></g></svg>