<?xml version="1.0" encoding="UTF-8" standalone="no"?><!DOCTYPE svg PUBLIC "-//W3C//DTD SVG 1.1//EN" "http://www.w3.org/Graphics/SVG/1.1/DTD/svg11.dtd"><svg width="100%" height="100%" viewBox="0 0 65 64" version="1.1" xmlns="http://www.w3.org/2000/svg" xmlns:xlink="http://www.w3.org/1999/xlink" xml:space="preserve" style="fill-rule:evenodd;clip-rule:evenodd;stroke-linecap:round;stroke-linejoin:round;stroke-miterlimit:1.5;"><rect id="Internet" x="0.841" y="0" width="64" height="64" style="fill:none;"/><g><path id="path3390" d="M16.816,55.244c2.321,-0.093 4.864,0.358 7.161,-0.057c1.587,-0.935 -2.493,0.708 -1.947,-0.649c2.349,-0.258 2.553,-2.312 5.503,-2.452c1.573,0.152 -1.344,0.627 -1.431,1.116c-1.71,0.227 2.471,2.172 -0.219,2.815c-1.485,0.885 -6.144,-0.194 -3.496,0.859c-2.744,0.489 2.812,1.212 3.831,1.256c3.359,0.281 6.735,-0.308 10.061,-0.657c-1.448,0.026 -2.356,-0.885 -0.231,-1.04c2.833,0.35 5.499,-1.932 7.734,-1.893c2.211,0.277 4.854,-0.679 6.901,-0.047c-9.655,7.867 -24.621,8.234 -34.619,0.775c-0.481,-0.722 0.563,0.32 0.752,-0.026l0,0Zm13.546,1.581c-1.266,0.354 -2.471,1.373 -0.367,0.968c1.872,0.274 3.519,-1.174 0.367,-0.968Zm-4.113,0.563c-2.851,-0.345 -0.344,1.126 0.504,-0.013l-0.161,-0.045l-0.343,0.058Zm-0.268,-3.388l-0.1,-0.002l0.1,0.002Zm-3.978,-48.553c3.002,-0.136 6.004,0.688 8.993,0.029c3.573,-0.648 6.946,0.224 9.805,0.343c2.28,-0.016 -1.731,0.79 -1.14,1.86c-0.693,-0.28 1.186,0.92 -0.686,0.995c0.328,2.031 -3.303,1.313 -4.663,2.277c-1.883,0.521 -2.215,3.404 -4.346,1.355c-1.42,-0.682 -0.996,-2.617 -0.929,-2.402c-1.137,-0.965 -2.566,-2.836 -4.903,-2.132c-3.847,-0.806 2.51,-1.3 0.666,-1.328c-2.892,-0.372 -4.304,2.741 -7.28,1.943c-2.91,0.202 1.264,3.205 0.905,1.425c-2.836,-1.178 2.218,-2.029 3.35,-1.034c1.335,0.436 4.723,1.539 4.251,2.433c-1.734,-0.15 -0.751,-0.193 -0.74,1.073c-1.283,0.133 -3.371,-0.865 -4.212,-0.639c1.264,-0.763 2.216,-1.174 0.234,-1.285c-0.199,-1.34 -3.14,0.817 -0.875,1.393c-1.93,0.065 -2.955,-0.848 -4.395,1.069c0.894,1.479 3.735,1.208 4.662,2.515c0.407,-0.89 0.723,-2.032 0.381,-3.087c1.909,-1.221 2.918,1.895 4.548,0.543c1.279,1.23 2.243,2.079 2.913,3.318c2.096,1.59 -3.158,1.188 -0.877,-0.456c-1.204,0.726 -2.106,0.437 -2.958,0.696c1.112,0.069 0.417,1.017 2.057,0.766c-0.164,1.1 -2.854,0.967 -2.543,0.796c-1.35,1.487 -3.997,3.063 -3.936,5.823c-0.345,1.173 -0.826,-2.495 -2.39,-1.117c-2.616,-1.098 -4.231,2.911 -1.473,3.458c0.75,-0.895 2.428,-1.547 1.826,0.36c-0.73,0.562 2.49,0.284 1.175,1.965c1.793,1.994 3.75,-1.553 5.529,0.23c1.834,-0.725 2.715,1.948 4.685,1.988c0.323,2.813 6.841,1.577 4.405,5.233c-0.975,1.905 -1.312,3.802 -3.63,4.583c-0.732,3.048 -2.952,3.365 -5.118,4.932c1.091,0.424 -1.731,1.353 -0.251,1.782c-1.984,1.072 -0.388,1.969 0.36,2.395c-2.629,0.801 -4.321,-1.126 -3.407,-3.217c0.538,-2.678 1.917,-5.427 1.326,-8.191c-1.599,-2.029 -4.711,-4.703 -2.17,-7.354c0.6,-2.395 -1.061,-0.824 -1.501,-1.103c-1.196,-1.786 -3.246,-2.691 -5.33,-2.837c-1.777,-0.633 -3.758,-4.394 -4.266,-4.249c0.99,0.939 1.437,2.974 -0.054,1.096c-0.622,-2.144 -4.323,-3.174 -2.317,-5.711c2.092,-3.047 4.161,-6.28 7.383,-8.275c2.003,-1.811 4.335,-3.223 6.936,-4.257Zm28.989,4.336c1.637,0.345 1.813,2.206 0.174,2.731c1.102,1.095 1.912,-2.237 2.604,0.058c-1.078,0.705 -2.567,0.376 -3.421,1.683c-1.47,0.651 2.683,0.699 2.115,-0.798c3.191,-2.113 3.172,3.544 5.219,4.132c-0.537,0.954 -3.442,-1.441 -2.909,1.194c3.747,-1.438 5.165,2.829 5.841,5.656c0.714,1.343 0.724,3.681 -1.248,3.826c2.366,-0.375 2.64,1.615 0.909,2.876c-2.665,1.238 -1.7,3.963 -2.038,5.99c-2.005,1.664 -1.737,4.672 -4.616,5.818c-3.032,1.135 -2.889,-3.12 -4.012,-4.845c-0.025,-2.091 0.544,-4.222 -1.062,-5.844c0.301,-4.346 -6.2,0.335 -7.392,-3.346c-1.66,-1.621 -0.824,-5.08 1.126,-6.397c1.125,-1.049 1.854,-2.078 0.37,-2.947c-0.235,-2.267 3.818,-1.197 1.833,-3.278c1.86,-0.536 1.433,-0.23 -0.319,-0.287c-0.449,-0.519 0.905,-2.021 -0.714,-0.687c-1.724,0.788 -0.962,-1.078 0.203,-1.302c-0.983,-0.654 3.295,-2.077 1.082,-0.455c0.736,2.43 3.402,2.114 3.912,0.115c1.1,-0.471 -3.057,-0.108 -1.137,-1.768c1.082,-0.014 3.091,-1.559 2.48,-1.759l0.578,-0.234l0.422,-0.132l0,0Zm9.436,30.266c-3.117,0.471 0.887,-6.038 0.826,-3.259c-0.236,1.096 -0.677,2.146 -0.826,3.259Zm-3.391,-16.505c0.451,0.9 2.827,3.87 1.663,3.841c-1.024,-1.046 -2.014,-3.459 -1.806,-4.031l0.095,0.126l0.048,0.064Zm-34.411,2.033c-0.822,1.561 3.238,0.246 0.46,-0.01l-0.46,0.01l0,0Zm-2.392,-1.068c-3.781,0.284 3.316,1.311 1.985,0.982c-0.536,-0.522 -1.321,-0.685 -1.985,-0.982l0,0Zm29.518,-6.969c0.074,1.326 2.755,1.301 1.061,2.461c-2.304,0.433 1.001,-0.617 -1.118,-1.265c-1.189,-1.001 -1.395,1.988 -1.355,0.108c1.028,-2.03 -2.951,0.206 -3.181,1.374c-1.872,0.967 2.654,-0.256 3.504,-0.223c0.412,1.846 3.015,2.422 4.373,1.684c1.19,1.449 5.642,-0.794 2.699,-1.163c-1.155,0.123 -3.344,-0.884 -2.102,0.322c-1.761,-0.449 -2.017,-2.774 -3.881,-3.298l0,0Zm4.436,2.546l-0.113,-0.018l0.113,0.018Zm0.54,-1.063l-0.219,-0.023l0.219,0.023Zm-34.992,-1.516c2.362,2.307 -5.513,-3.088 -0.324,-0.077l0.324,0.077Zm25.119,-0.554l-0.075,-0.001l0.075,0.001Zm-20.438,-0.571l-0.101,-0.002l0.101,0.002Zm27.099,-2.862c-0.763,0.638 0.061,-0.399 0.285,-0.043l-0.285,0.043Zm-13.13,-2.719c-1.285,2.051 5.376,0.355 2.064,0.021c-0.68,0.081 -1.402,0.249 -2.064,-0.021l0,0Zm-17.263,-1.072l-0.1,-0.002l0.1,0.002Zm7.946,-0.328l-0.121,-0.002l0.121,0.002Zm-10.346,-1.668c3.034,-0.059 -2.11,0.233 -0.274,-0.01l0.158,0.006l0.116,0.004Zm19.289,-1.893l-0.187,0.023l0.187,-0.023l0,0Z"/><ellipse cx="32.841" cy="32" rx="28.741" ry="28.668" style="fill:none;stroke:#000;stroke-width:3px;"/></g></svg>