<?xml version="1.0" encoding="UTF-8" standalone="no"?><!DOCTYPE svg PUBLIC "-//W3C//DTD SVG 1.1//EN" "http://www.w3.org/Graphics/SVG/1.1/DTD/svg11.dtd"><svg width="100%" height="100%" viewBox="0 0 65 65" version="1.1" xmlns="http://www.w3.org/2000/svg" xmlns:xlink="http://www.w3.org/1999/xlink" xml:space="preserve" style="fill-rule:evenodd;clip-rule:evenodd;stroke-linecap:round;stroke-linejoin:round;stroke-miterlimit:1.5;"><rect id="Phone" x="0.841" y="0.285" width="64" height="64" style="fill:none;"/><path d="M17.966,2.955c-0.829,0.182 -5.928,3.593 -7.92,8.091c3.952,21.698 19.321,39.73 32.861,49.019c2.819,0.03 8.648,-1.851 11.677,-4.234c0.675,-1.209 1.639,-2.483 1.863,-3.375c0.162,-0.643 -0.079,-1.395 -0.467,-1.933c-2.283,-3.162 -11.904,-9.797 -13.705,-8.795c-0.839,0.466 -3.16,2.11 -4.129,2.645c-0.52,0.287 -1.097,0.568 -1.69,0.563c-0.608,-0.005 -1.411,-0.183 -1.953,-0.594c-2.353,-1.78 -12.458,-16.096 -13.282,-19.277c-0.122,-0.473 -0.103,-1.041 0.091,-1.489c0.228,-0.527 0.642,-1.289 1.195,-1.712c0.924,-0.707 2.981,-2.141 4.431,-3.276c0.841,-2.108 -3.499,-14.545 -4.44,-15.685c-0.169,-0.204 -0.321,-0.54 -0.586,-0.537c-0.755,0.009 -2.334,0.326 -3.946,0.589Z" style="stroke:#000;stroke-width:0.75px;"/></svg>